<?xml version="1.0" encoding="utf-8"?>
<!-- Generator: Adobe Illustrator 16.0.0, SVG Export Plug-In . SVG Version: 6.00 Build 0)  -->
<!DOCTYPE svg PUBLIC "-//W3C//DTD SVG 1.1//EN" "http://www.w3.org/Graphics/SVG/1.1/DTD/svg11.dtd">
<svg version="1.1" id="圖層_1" xmlns="http://www.w3.org/2000/svg" xmlns:xlink="http://www.w3.org/1999/xlink" x="0px" y="0px"
	 width="200px" height="200px" viewBox="0 0 200 200" enable-background="new 0 0 200 200" xml:space="preserve">
<g id="停車處">
</g>
<g id="汽車">
	<g>
		<g>
			<path fill="#007BFF" d="M130.167,155.402H38.934c-12.796,0-23.207-10.406-23.207-23.198V40.948
				c0-12.772,10.411-23.163,23.207-23.163h91.233c12.792,0,23.198,10.391,23.198,23.163v91.256
				C153.365,144.996,142.959,155.402,130.167,155.402z M38.934,22.146c-10.391,0-18.846,8.435-18.846,18.802v91.256
				c0,10.387,8.455,18.837,18.846,18.837h91.233c10.387,0,18.837-8.45,18.837-18.837V40.948c0-10.367-8.45-18.802-18.837-18.802
				H38.934z"/>
		</g>
		<g>
			<path fill="#007BFF" d="M96.056,85.79c11.478,0,11.478-8.198,11.478-11.489c0-7.168-4.011-10.143-13.55-10.143H81.802V85.79
				H96.056z M81.802,125.031H66.438V51.455h33.603c14.253,0,22.858,9.125,22.858,23.563c0,6.665-3.688,23.47-23.47,23.47H81.802
				V125.031z"/>
		</g>
		<g>
			<g>
				<path fill="#007BFF" d="M31.49,125.025v-21.284h3.247v3.026c1.563-2.34,3.822-3.51,6.775-3.51c1.281,0,2.461,0.231,3.536,0.693
					c1.076,0.46,1.881,1.064,2.416,1.814c0.534,0.747,0.909,1.636,1.122,2.665c0.134,0.668,0.2,1.838,0.2,3.508v13.087H45.18
					v-12.947c0-1.469-0.141-2.568-0.421-3.297c-0.28-0.728-0.779-1.31-1.493-1.744c-0.716-0.434-1.553-0.651-2.516-0.651
					c-1.536,0-2.862,0.487-3.979,1.464c-1.115,0.976-1.674,2.825-1.674,5.551v11.625H31.49z"/>
			</g>
			<g>
				<path fill="#007BFF" d="M68.372,121.8l0.521,3.187c-1.016,0.213-8.1,0.32-8.902,0.32c-1.309,0-2.323-0.207-3.046-0.622
					c-0.722-0.413-1.229-0.956-1.523-1.632c-0.294-0.675-0.44-2.096-0.44-4.26v-12.247h-2.646v-2.805h2.646v-5.273l3.588-2.163
					v7.437h3.627v2.805h-3.627v12.447c0,1.029,0.063,1.691,0.19,1.983c0.126,0.295,0.333,0.528,0.621,0.703
					c0.287,0.175,6.873,0.26,7.408,0.26C67.189,121.939,67.718,121.894,68.372,121.8z"/>
			</g>
		</g>
		<path fill="#007BFF" d="M41.729,158.869c-6.436,0-11.656,5.228-11.656,11.674c0,6.445,5.221,11.672,11.656,11.672
			c6.445,0,11.672-5.227,11.672-11.672C53.401,164.097,48.175,158.869,41.729,158.869z M41.729,179.013
			c-4.672,0-8.459-3.793-8.459-8.47c0-4.679,3.787-8.471,8.459-8.471c4.683,0,8.462,3.792,8.462,8.471
			C50.191,175.22,46.412,179.013,41.729,179.013z"/>
		<g>
			<path fill="#007BFF" d="M48.34,170.543c0,3.651-2.959,6.61-6.61,6.61c-3.646,0-6.602-2.959-6.602-6.61
				c0-3.649,2.956-6.607,6.602-6.607C45.381,163.936,48.34,166.894,48.34,170.543z"/>
		</g>
		<path fill="#007BFF" d="M143.65,158.869c-6.44,0-11.665,5.228-11.665,11.674c0,6.445,5.225,11.672,11.665,11.672
			c6.441,0,11.661-5.227,11.661-11.672C155.312,164.097,150.092,158.869,143.65,158.869z M143.65,179.013
			c-4.677,0-8.459-3.793-8.459-8.47c0-4.679,3.782-8.471,8.459-8.471c4.672,0,8.458,3.792,8.458,8.471
			C152.108,175.22,148.322,179.013,143.65,179.013z"/>
		<g>
			<ellipse fill="#007BFF" cx="143.65" cy="170.543" rx="6.602" ry="6.61"/>
		</g>
		<polygon fill="none" points="111.083,148.251 111.083,148.25 111.083,148.25 		"/>
		<path fill="none" d="M119.073,144.328c2.775,0,5.025-2.413,5.025-5.383c0-2.975-2.25-5.387-5.025-5.387
			c-2.777,0-5.023,2.412-5.023,5.387C114.05,141.915,116.296,144.328,119.073,144.328z"/>
		<path fill="#007BFF" d="M113.212,146.84c-0.346,1.356-1.878,1.414-2.129,1.41v0.001v-0.001c-0.021,0-0.062,0-0.062,0
			l-50.775-0.784c3.358-6.413,7.419-11.614,9.041-13.59c-0.374-0.005-0.568-0.038-0.505-0.119l1.376-1.528
			c-0.109,0.026-0.216,0.051-0.323,0.078l-0.221,0.055l-0.148,0.171c-0.056,0.063-5.577,6.408-9.864,14.596l-0.548,1.047
			l51.933,0.801l0.097,0.003c0.367,0,1.625-0.072,2.388-0.994c0.279-0.338,0.444-0.744,0.516-1.204
			C113.729,146.802,113.471,146.821,113.212,146.84z"/>
		<path fill="#007BFF" d="M112.351,147.058c-0.375,0.454-1.179,0.467-1.268,0.467v0.726c0.251,0.004,1.783-0.054,2.129-1.41
			c-0.267,0.021-0.529,0.044-0.799,0.062C112.388,146.949,112.385,147.018,112.351,147.058z"/>
		<path fill="#007BFF" d="M61.45,146.758c3.527-6.454,7.668-11.554,8.804-12.908c-0.394,0.02-0.726,0.029-0.967,0.026
			c-1.622,1.976-5.683,7.177-9.041,13.59l50.775,0.784c0,0,0.04,0,0.062,0l-0.05-0.727L61.45,146.758z"/>
		<path fill="#007BFF" d="M113.952,145.516c0.088,0.463,0.094,0.882,0.034,1.265c8.782-0.716,16.681-2.347,22.31-5.737
			c-18.221-17.126-40.417-14.606-52.964-13.473c-9.674,0.879-12.351,3.742-12.351,3.742l-0.823,0.916
			c6.764-1.688,12.92-2.55,18.298-2.55C109.843,129.679,113.446,142.87,113.952,145.516z M119.073,133.559
			c2.775,0,5.025,2.412,5.025,5.387c0,2.97-2.25,5.383-5.025,5.383c-2.777,0-5.023-2.413-5.023-5.383
			C114.05,135.971,116.296,133.559,119.073,133.559z"/>
		<path fill="#007BFF" d="M108.304,139.657c1.745,3.28,2.762,5.621,3.325,7.305c0.265-0.017,0.521-0.042,0.784-0.061
			c0.148-0.27,0.204-0.628,0.11-1.113c-0.467-2.447-3.824-14.656-24.067-14.656c-5.285,0-11.355,0.851-18.042,2.527
			c-0.043,0.05-0.101,0.119-0.16,0.19c1.23-0.062,3.119-0.216,5.332-0.368C86.322,132.958,103.711,131.032,108.304,139.657z"/>
		<path fill="#007BFF" d="M69.287,133.876c0.452-0.552,0.726-0.865,0.726-0.865c37.626-9.519,42.701,9.898,43.225,12.641
			c0.094,0.493,0.058,0.865-0.025,1.188c0.259-0.019,0.517-0.038,0.774-0.06c0.06-0.383,0.054-0.802-0.034-1.265
			c-0.506-2.646-4.109-15.837-25.496-15.837c-5.378,0-11.534,0.861-18.298,2.55l-1.376,1.528
			C68.719,133.838,68.913,133.871,69.287,133.876z"/>
		<path fill="#007BFF" d="M113.237,145.651c-0.523-2.742-5.599-22.159-43.225-12.641c0,0-0.273,0.313-0.726,0.865
			c0.241,0.003,0.573-0.007,0.967-0.026c0.06-0.071,0.117-0.141,0.16-0.19c6.687-1.677,12.757-2.527,18.042-2.527
			c20.243,0,23.601,12.209,24.067,14.656c0.094,0.485,0.038,0.844-0.11,1.113c0.27-0.018,0.532-0.041,0.799-0.062
			C113.295,146.517,113.331,146.145,113.237,145.651z"/>
		<g>
			<path fill="#007BFF" d="M126.426,169.901l32.587-0.375c0,0,4.656-6.977-2.415-13.687c-7.08-6.708-22.723-5.591-22.723-5.591
				l-8.748,12.119L126.426,169.901z"/>
		</g>
		<g>
			<path fill="#007BFF" d="M18.591,157.26c-1.616-0.691-4.4-5.356-6.194-8.627c-3.324,0.222-5.299,0.368-5.299,0.368
				s3.237,6.461,7.539,9.336c0,0-20.065,8.313,7.684,11.672l5.238-0.175c0,0,0.308-4.702,2.878-8.653
				C29.293,156.95,20.787,158.204,18.591,157.26z"/>
		</g>
		<g>
			<path fill="#007BFF" d="M94.669,151.508c0,0.797,2.412,1.444,5.381,1.444c2.978,0,5.385-0.647,5.385-1.444
				c0-0.787-2.407-1.432-5.385-1.432C97.081,150.076,94.669,150.721,94.669,151.508z"/>
		</g>
		<g>
			<path fill="#007BFF" d="M119.073,143.593c2.395,0,4.336-2.078,4.336-4.647c0-2.576-1.941-4.651-4.336-4.651
				c-2.396,0-4.338,2.075-4.338,4.651C114.735,141.515,116.677,143.593,119.073,143.593z"/>
		</g>
		<g>
			<path fill="#007BFF" d="M126.88,168.417c0-0.777-0.633-1.409-1.411-1.409h-68.15c-0.776,0-1.408,0.632-1.408,1.409l0,0
				c0,0.777,0.632,1.417,1.408,1.417h68.15C126.247,169.834,126.88,169.194,126.88,168.417L126.88,168.417z"/>
		</g>
		<path fill="#007BFF" d="M186.548,143.153v6.077c3.313-0.42,6.354-1.866,6.354-3.104c0-1.032-2.349-2.489-5.854-3.035
			C186.883,143.113,186.715,143.135,186.548,143.153z"/>
		<path fill="#007BFF" d="M192.902,129.964c0-1.123-2.771-2.671-6.354-3.111v6.221C189.861,132.654,192.902,131.204,192.902,129.964
			z"/>
		<path fill="#007BFF" d="M192.902,138.581c0-1.12-2.771-2.663-6.354-3.104v6.078c0.167,0.02,0.336,0.041,0.502,0.065
			C190.556,141.07,192.902,139.613,192.902,138.581z"/>
		<path fill="#007BFF" d="M185.094,125.269v-1.049c-0.006,0-0.012,0-0.019,0c-0.908,0-2.621,0.018-4.853,0.127l0.41,36.204
			c0.432-0.065,0.869-0.111,1.313-0.111c1.072,0,2.155,0.225,3.147,0.628v-10.248v-0.783v-7.143v-1.061v-7.173v-0.77v-7.84V125.269z
			"/>
		<path fill="#007BFF" d="M185.769,142.943l-0.675-0.05v7.143h0.727v-7.088C185.804,142.947,185.785,142.944,185.769,142.943z"/>
		<polygon fill="#007BFF" points="185.094,133.891 185.82,133.944 185.82,133.876 185.82,126.051 185.094,126.051 		"/>
		<path fill="#007BFF" d="M185.094,141.833l0.661-0.06c0.021-0.002,0.045-0.006,0.065-0.008v-7.092v-0.067l-0.727,0.054V141.833z"/>
		<path fill="#007BFF" d="M185.769,142.943c0.017,0.001,0.035,0.004,0.052,0.005v-0.451v-0.279v-0.452
			c-0.021,0.002-0.044,0.006-0.065,0.008l-0.661,0.06v1.061L185.769,142.943z"/>
		<polygon fill="#007BFF" points="185.094,133.891 185.094,134.66 185.82,134.606 185.82,133.944 		"/>
		<path fill="#007BFF" d="M185.094,161.067c0.251,0.103,0.491,0.216,0.727,0.344v-10.646l-0.727,0.054V161.067z"/>
		<polygon fill="#007BFF" points="185.094,150.819 185.82,150.766 185.82,150.036 185.094,150.036 		"/>
		<path fill="#007BFF" d="M170.293,161.474l7.586-0.009c0.414-0.228,0.854-0.404,1.305-0.558l-0.423-37.205
			c-2.407,0.146-5.259,0.391-8.359,0.812c-1.701,0.233-3.393,0.47-4.923,0.654c-7.734,0.253-13.625,4.969-20.4,8.132
			c-1.452,1.06-2.71,2.218-3.755,3.49c-1.364,1.658-3.06,3.055-5.027,4.253c-6.131,3.693-14.94,5.313-24.667,5.919l-43.678-0.498
			c-18.565-0.119-44.528,1.439-55.555,2.169c1.794,3.271,4.578,7.936,6.194,8.627c2.196,0.944,10.702-0.31,11.846,3.921
			c2.246-3.461,6.115-5.332,13.272-5.006c14.846,0.67,12.201,13.659,12.201,13.659l70.697-0.013c0,0,0.417-15.217,9.721-15.445
			c23.992-0.586,22.611,15.085,22.611,15.085l10.51-0.122c-0.106-0.642-0.163-1.694-0.163-3.438
			C169.286,161.474,169.645,161.474,170.293,161.474z"/>
		<path fill="#007BFF" d="M179.907,160.686l-0.42-37.028c-0.23,0.013-0.488,0.031-0.727,0.045l0.423,37.205
			C179.422,160.826,179.66,160.746,179.907,160.686z"/>
		<path fill="#007BFF" d="M178.945,169.229c0.111,0.051,0.221,0.113,0.333,0.16l-0.001-0.164L178.945,169.229z"/>
		<path fill="#007BFF" d="M187.411,165.815c-0.067-0.788-0.395-1.453-0.863-2.013v4.169
			C187.026,167.353,187.343,166.626,187.411,165.815z"/>
		<path fill="#007BFF" d="M182.088,169.964c0.362,0,0.715-0.028,1.054-0.081l-1.745,0.034
			C181.628,169.939,181.858,169.964,182.088,169.964z"/>
		<path fill="#007BFF" d="M180.65,162.024l0.072,6.451l4.371-0.085v-5.734c-0.941-0.491-2.052-0.763-3.147-0.763
			C181.506,161.894,181.074,161.947,180.65,162.024z"/>
		<path fill="#007BFF" d="M179.277,169.226l0.001,0.164c0.69,0.284,1.404,0.454,2.118,0.527l1.745-0.034
			c0.788-0.124,1.493-0.397,2.108-0.769l-5.246,0.103L179.277,169.226z"/>
		<path fill="#007BFF" d="M186.548,167.972v-4.169c-0.213-0.254-0.455-0.483-0.728-0.688v5.612
			C186.098,168.503,186.336,168.245,186.548,167.972z"/>
		<path fill="#007BFF" d="M180.723,168.476l-0.072-6.451c-0.246,0.045-0.489,0.098-0.726,0.167l0.079,7.025l5.246-0.103
			c0.198-0.12,0.395-0.244,0.57-0.388v-5.612c-0.227-0.17-0.468-0.322-0.727-0.458v5.734L180.723,168.476z"/>
		<path fill="#007BFF" d="M179.2,162.441c-0.263,0.111-0.518,0.234-0.762,0.377l-0.167,0.096l-7.415,0.013
			c-0.06,0.55-0.116,1.583-0.116,2.974c0,1.394,0.057,2.431,0.116,2.981l7.405,0.007l0.161,0.09c0.17,0.095,0.348,0.169,0.522,0.251
			l0.332-0.004L179.2,162.441z"/>
		<path fill="#007BFF" d="M180.004,169.217l-0.079-7.025c-0.247,0.073-0.49,0.152-0.725,0.25l0.077,6.784L180.004,169.217z"/>
	</g>
</g>
</svg>
